# This file uses centimeters as units for non-parametric coordinates.

mtllib monster_Scleras.mtl
g default
v 0.607730 -1.357041 2.767639
v 0.903921 -1.058468 3.118145
v 1.614409 -1.209335 3.090980
v 1.429143 -1.586384 2.533286
v 2.139323 -0.970759 2.648449
v 2.163469 -1.246589 2.176152
v 1.345890 0.545485 2.712412
v 0.707975 0.222084 2.841891
v 0.360976 0.255555 2.419753
v 1.095300 0.595350 2.062619
v 1.916714 0.366008 1.828266
v 1.943378 0.309793 2.372195
v 0.633675 -0.392021 3.223523
v 0.209819 -0.570234 2.698073
v 2.326624 -0.271827 2.579870
v 2.314628 -0.420799 1.897832
v 0.770444 -1.158710 2.748629
v 1.420900 -1.328306 2.559796
v 1.606165 -0.951256 3.117491
v 1.066637 -0.860137 3.099136
v 2.006029 -1.070987 2.278864
v 1.981885 -0.795157 2.751161
v 1.410189 0.329487 2.841195
v 1.159598 0.379351 2.191403
v 0.574470 0.122032 2.472335
v 0.921469 0.088561 2.894473
v 1.810054 0.209755 2.002569
v 1.836719 0.153541 2.546498
v 0.466526 -0.532959 2.688776
v 0.890384 -0.354746 3.214226
v 2.113974 -0.415995 2.062422
v 2.125969 -0.267023 2.744460
v -1.985389 -0.795156 2.751161
v -1.070142 -0.860136 3.099136
v -1.840222 0.153542 2.546498
v -0.924973 0.088562 2.894473
v -1.609670 -0.951256 3.117491
v -1.413693 0.329487 2.841196
v -2.009534 -1.070987 2.278864
v -0.773950 -1.158710 2.748630
v -2.129474 -0.267023 2.744460
v -0.893887 -0.354746 3.214226
v -1.813560 0.209755 2.002569
v -0.577973 0.122033 2.472335
v -1.424405 -1.328305 2.559796
v -1.163104 0.379351 2.191403
v -0.470031 -0.532959 2.688776
v -2.117476 -0.415995 2.062422
v -0.611234 -1.357041 2.767639
v -0.907426 -1.058468 3.118145
v -1.617911 -1.209334 3.090980
v -1.432649 -1.586384 2.533286
v -2.142829 -0.970759 2.648449
v -2.166972 -1.246589 2.176152
v -1.349395 0.545486 2.712413
v -0.711478 0.222085 2.841891
v -0.364480 0.255556 2.419753
v -1.098805 0.595351 2.062619
v -1.946881 0.309794 2.372195
v -1.920218 0.366008 1.828266
v -0.637179 -0.392021 3.223523
v -0.213323 -0.570234 2.698073
v -2.330127 -0.271827 2.579870
v -2.318131 -0.420799 1.897832
vt 0.625000 0.125000
vt 0.500000 0.125000
vt 0.500000 0.250000
vt 0.625000 0.250000
vt 0.375000 0.125000
vt 0.375000 0.250000
vt 0.500000 0.500000
vt 0.500000 0.625000
vt 0.625000 0.625000
vt 0.625000 0.500000
vt 0.375000 0.625000
vt 0.375000 0.500000
vt 0.875000 0.125000
vt 0.750000 0.125000
vt 0.750000 0.250000
vt 0.875000 0.250000
vt 0.250000 0.125000
vt 0.250000 0.250000
vt 0.125000 0.125000
vt 0.125000 0.250000
vt 0.625000 0.125000
vt 0.625000 0.250000
vt 0.500000 0.250000
vt 0.500000 0.125000
vt 0.375000 0.250000
vt 0.375000 0.125000
vt 0.500000 0.500000
vt 0.625000 0.500000
vt 0.625000 0.625000
vt 0.500000 0.625000
vt 0.375000 0.625000
vt 0.375000 0.500000
vt 0.875000 0.125000
vt 0.875000 0.250000
vt 0.750000 0.250000
vt 0.750000 0.125000
vt 0.250000 0.250000
vt 0.250000 0.125000
vt 0.125000 0.250000
vt 0.125000 0.125000
vt 0.625000 0.250000
vt 0.500000 0.250000
vt 0.500000 0.125000
vt 0.625000 0.125000
vt 0.375000 0.250000
vt 0.375000 0.125000
vt 0.500000 0.500000
vt 0.625000 0.500000
vt 0.625000 0.625000
vt 0.500000 0.625000
vt 0.375000 0.500000
vt 0.375000 0.625000
vt 0.875000 0.250000
vt 0.750000 0.250000
vt 0.750000 0.125000
vt 0.875000 0.125000
vt 0.250000 0.250000
vt 0.250000 0.125000
vt 0.125000 0.250000
vt 0.125000 0.125000
vt 0.625000 0.125000
vt 0.625000 0.250000
vt 0.500000 0.250000
vt 0.500000 0.125000
vt 0.375000 0.250000
vt 0.375000 0.125000
vt 0.500000 0.500000
vt 0.625000 0.500000
vt 0.625000 0.625000
vt 0.500000 0.625000
vt 0.375000 0.625000
vt 0.375000 0.500000
vt 0.875000 0.125000
vt 0.875000 0.250000
vt 0.750000 0.250000
vt 0.750000 0.125000
vt 0.250000 0.250000
vt 0.250000 0.125000
vt 0.125000 0.250000
vt 0.125000 0.125000
vt 0.625000 0.125000
vt 0.500000 0.125000
vt 0.500000 0.250000
vt 0.625000 0.250000
vt 0.375000 0.125000
vt 0.375000 0.250000
vt 0.500000 0.500000
vt 0.500000 0.625000
vt 0.625000 0.625000
vt 0.625000 0.500000
vt 0.375000 0.625000
vt 0.375000 0.500000
vt 0.875000 0.125000
vt 0.750000 0.125000
vt 0.750000 0.250000
vt 0.875000 0.250000
vt 0.250000 0.125000
vt 0.250000 0.250000
vt 0.125000 0.125000
vt 0.125000 0.250000
vt 0.625000 0.250000
vt 0.500000 0.250000
vt 0.500000 0.125000
vt 0.625000 0.125000
vt 0.375000 0.250000
vt 0.375000 0.125000
vt 0.500000 0.500000
vt 0.625000 0.500000
vt 0.625000 0.625000
vt 0.500000 0.625000
vt 0.375000 0.500000
vt 0.375000 0.625000
vt 0.875000 0.250000
vt 0.750000 0.250000
vt 0.750000 0.125000
vt 0.875000 0.125000
vt 0.250000 0.250000
vt 0.250000 0.125000
vt 0.125000 0.250000
vt 0.125000 0.125000
vn -0.391634 -0.585100 0.710128
vn 0.259751 -0.805385 0.532809
vn 0.259751 -0.805385 0.532809
vn -0.391634 -0.585100 0.710128
vn 0.831692 -0.498249 0.245023
vn 0.831692 -0.498249 0.245023
vn -0.014854 0.989224 0.145657
vn -0.014854 0.989224 0.145657
vn -0.585665 0.682935 0.436573
vn -0.585665 0.682935 0.436573
vn 0.637662 0.769788 -0.028531
vn 0.637662 0.769788 -0.028531
vn -0.743218 0.030460 0.668355
vn -0.743218 0.030460 0.668355
vn 0.988116 0.153380 0.010109
vn 0.988116 0.153380 0.010109
vn 0.391229 0.584705 -0.710676
vn 0.391229 0.584705 -0.710676
vn -0.259538 0.805888 -0.532150
vn -0.259538 0.805888 -0.532150
vn -0.831708 0.497879 -0.245720
vn -0.831708 0.497879 -0.245720
vn 0.015163 -0.989335 -0.144866
vn 0.585199 -0.682928 -0.437209
vn 0.585199 -0.682928 -0.437209
vn 0.015163 -0.989335 -0.144866
vn -0.637738 -0.769754 0.027747
vn -0.637738 -0.769754 0.027747
vn 0.743775 -0.030242 -0.667745
vn 0.743775 -0.030242 -0.667745
vn -0.988151 -0.153204 -0.009272
vn -0.988151 -0.153204 -0.009272
vn 0.003627 -0.017661 0.999837
vn 0.003627 -0.017661 0.999837
vn 0.354996 0.006056 0.934848
vn 0.354996 0.006056 0.934848
vn -0.359610 0.093333 -0.928423
vn -0.359610 0.093333 -0.928423
vn -0.132698 0.001504 -0.991155
vn -0.132698 0.001504 -0.991155
vn 0.660839 0.028996 0.749968
vn 0.660839 0.028996 0.749968
vn -0.557619 -0.028665 -0.829602
vn -0.557619 -0.028665 -0.829602
vn 0.283507 0.473254 0.834059
vn 0.283507 0.473254 0.834059
vn -0.063277 0.419576 0.905512
vn -0.063277 0.419576 0.905512
vn -0.065301 -0.438947 -0.896137
vn -0.065301 -0.438947 -0.896137
vn -0.259888 -0.558376 -0.787829
vn -0.259888 -0.558376 -0.787829
vn 0.593933 0.466239 0.655641
vn 0.593933 0.466239 0.655641
vn -0.490223 -0.469117 -0.734582
vn -0.490223 -0.469117 -0.734582
vn 0.035751 0.549928 0.834447
vn 0.035751 0.549928 0.834447
vn 0.093891 0.223654 0.970136
vn 0.093891 0.223654 0.970136
vn 0.004615 -0.210201 -0.977647
vn 0.004615 -0.210201 -0.977647
vn 0.139990 -0.131302 0.981408
vn 0.139990 -0.131302 0.981408
vn 0.561809 -0.101354 0.821035
vn 0.561809 -0.101354 0.821035
vn 0.544611 0.255656 0.798773
vn 0.544611 0.255656 0.798773
vn -0.624112 -0.254841 -0.738607
vn -0.624112 -0.254841 -0.738607
vn 0.457569 0.579878 0.674071
vn 0.457569 0.579878 0.674071
vn 0.391634 -0.585100 0.710128
vn 0.391634 -0.585100 0.710128
vn -0.259752 -0.805385 0.532808
vn -0.259752 -0.805385 0.532808
vn -0.831693 -0.498247 0.245022
vn -0.831693 -0.498247 0.245022
vn 0.014854 0.989224 0.145657
vn 0.585665 0.682935 0.436574
vn 0.585665 0.682935 0.436574
vn 0.014854 0.989224 0.145657
vn -0.637662 0.769788 -0.028531
vn -0.637662 0.769788 -0.028531
vn 0.743218 0.030460 0.668356
vn 0.743218 0.030460 0.668356
vn -0.988116 0.153380 0.010109
vn -0.988116 0.153380 0.010109
vn -0.391228 0.584705 -0.710676
vn 0.259539 0.805888 -0.532151
vn 0.259539 0.805888 -0.532151
vn -0.391228 0.584705 -0.710676
vn 0.831708 0.497879 -0.245719
vn 0.831708 0.497879 -0.245719
vn -0.015161 -0.989335 -0.144866
vn -0.015161 -0.989335 -0.144866
vn -0.585198 -0.682928 -0.437209
vn -0.585198 -0.682928 -0.437209
vn 0.637739 -0.769752 0.027747
vn 0.637739 -0.769752 0.027747
vn -0.743776 -0.030241 -0.667745
vn -0.743776 -0.030241 -0.667745
vn 0.988151 -0.153203 -0.009271
vn 0.988151 -0.153203 -0.009271
vn -0.003627 -0.017660 0.999837
vn -0.354996 0.006061 0.934848
vn -0.354996 0.006061 0.934848
vn -0.003627 -0.017660 0.999837
vn 0.359610 0.093334 -0.928423
vn 0.132698 0.001504 -0.991156
vn 0.132698 0.001504 -0.991156
vn 0.359610 0.093334 -0.928423
vn -0.660838 0.029005 0.749968
vn -0.660838 0.029005 0.749968
vn 0.557620 -0.028662 -0.829601
vn 0.557620 -0.028662 -0.829601
vn -0.283507 0.473253 0.834060
vn 0.063276 0.419574 0.905513
vn 0.063276 0.419574 0.905513
vn -0.283507 0.473253 0.834060
vn 0.065301 -0.438949 -0.896136
vn 0.259887 -0.558376 -0.787829
vn 0.259887 -0.558376 -0.787829
vn 0.065301 -0.438949 -0.896136
vn -0.593932 0.466239 0.655642
vn -0.593932 0.466239 0.655642
vn 0.490223 -0.469117 -0.734582
vn 0.490223 -0.469117 -0.734582
vn -0.035751 0.549929 0.834446
vn -0.093891 0.223655 0.970136
vn -0.093891 0.223655 0.970136
vn -0.035751 0.549929 0.834446
vn -0.004616 -0.210203 -0.977647
vn -0.004616 -0.210203 -0.977647
vn -0.139991 -0.131302 0.981408
vn -0.139991 -0.131302 0.981408
vn -0.561810 -0.101353 0.821034
vn -0.544613 0.255655 0.798772
vn -0.544613 0.255655 0.798772
vn -0.561810 -0.101353 0.821034
vn 0.624113 -0.254839 -0.738607
vn 0.624113 -0.254839 -0.738607
vn -0.457571 0.579877 0.674071
vn -0.457571 0.579877 0.674071
s 1
g eyeWhites
usemtl lambert2SG
f 1/1/1 4/2/2 3/3/3 2/4/4
f 3/3/3 4/2/2 6/5/5 5/6/6
f 7/7/7 10/8/8 9/9/9 8/10/10
f 11/11/11 10/8/8 7/7/7 12/12/12
f 9/13/9 14/14/13 13/15/14 8/16/10
f 13/15/14 14/14/13 1/1/1 2/4/4
f 6/5/5 16/17/15 15/18/16 5/6/6
f 15/18/16 16/17/15 11/19/11 12/20/12
s 2
f 17/21/17 20/22/18 19/23/19 18/24/20
f 19/23/19 22/25/21 21/26/22 18/24/20
f 23/27/23 26/28/24 25/29/25 24/30/26
f 27/31/27 28/32/28 23/27/23 24/30/26
f 25/33/25 26/34/24 30/35/29 29/36/30
f 30/35/29 20/22/18 17/21/17 29/36/30
f 21/26/22 22/25/21 32/37/31 31/38/32
f 32/37/31 28/39/28 27/40/27 31/38/32
s 3
f 20/41/33 2/4/34 3/3/35 19/42/36
s 4
f 18/43/37 4/2/38 1/1/39 17/44/40
s 3
f 19/42/36 3/3/35 5/6/41 22/45/42
s 4
f 21/46/43 6/5/44 4/2/38 18/43/37
s 5
f 23/47/45 7/7/46 8/10/47 26/48/48
s 4
f 25/49/49 9/9/50 10/8/51 24/50/52
s 5
f 28/51/53 12/12/54 7/7/46 23/47/45
s 4
f 24/50/52 10/8/51 11/11/55 27/52/56
s 6
f 26/53/57 8/16/58 13/15/59 30/54/60
s 4
f 29/55/61 14/14/62 9/13/50 25/56/49
s 6
f 30/54/60 13/15/59 2/4/63 20/41/64
s 4
f 17/44/40 1/1/39 14/14/62 29/55/61
s 7
f 22/45/65 5/6/66 15/18/67 32/57/68
s 4
f 31/58/69 16/17/70 6/5/44 21/46/43
s 7
f 32/57/68 15/18/67 12/20/71 28/59/72
s 4
f 27/60/56 11/19/55 16/17/70 31/58/69
s 8
f 49/61/73 50/62/74 51/63/75 52/64/76
f 51/63/75 53/65/77 54/66/78 52/64/76
f 55/67/79 56/68/80 57/69/81 58/70/82
f 60/71/83 59/72/84 55/67/79 58/70/82
f 57/73/81 56/74/80 61/75/85 62/76/86
f 61/75/85 50/62/74 49/61/73 62/76/86
f 54/66/78 53/65/77 63/77/87 64/78/88
f 63/77/87 59/79/84 60/80/83 64/78/88
s 9
f 40/81/89 45/82/90 37/83/91 34/84/92
f 37/83/91 45/82/90 39/85/93 33/86/94
f 38/87/95 46/88/96 44/89/97 36/90/98
f 43/91/99 46/88/96 38/87/95 35/92/100
f 44/93/97 47/94/101 42/95/102 36/96/98
f 42/95/102 47/94/101 40/81/89 34/84/92
f 39/85/93 48/97/103 41/98/104 33/86/94
f 41/98/104 48/97/103 43/99/99 35/100/100
s 10
f 34/101/105 37/102/106 51/63/107 50/62/108
s 11
f 45/103/109 40/104/110 49/61/111 52/64/112
s 10
f 37/102/106 33/105/113 53/65/114 51/63/107
s 11
f 39/106/115 45/103/109 52/64/112 54/66/116
s 12
f 38/107/117 36/108/118 56/68/119 55/67/120
s 11
f 44/109/121 46/110/122 58/70/123 57/69/124
s 12
f 35/111/125 38/107/117 55/67/120 59/72/126
s 11
f 46/110/122 43/112/127 60/71/128 58/70/123
s 13
f 36/113/129 42/114/130 61/75/131 56/74/132
s 11
f 47/115/133 44/116/121 57/73/124 62/76/134
s 13
f 42/114/130 34/101/135 50/62/136 61/75/131
s 11
f 40/104/110 47/115/133 62/76/134 49/61/111
s 14
f 33/105/137 41/117/138 63/77/139 53/65/140
s 11
f 48/118/141 39/106/115 54/66/116 64/78/142
s 14
f 41/117/138 35/119/143 59/79/144 63/77/139
s 11
f 43/120/127 48/118/141 64/78/142 60/80/128
