# This file uses centimeters as units for non-parametric coordinates.

mtllib monster_Pupils.mtl
g default
v 0.774683 -1.179750 2.666126
v 1.070876 -0.881176 3.016632
v 1.610404 -0.972295 3.034987
v 1.425139 -1.349345 2.477293
v 1.986124 -0.816196 2.668658
v 2.010268 -1.092026 2.196361
v 0.894623 -0.375786 3.131723
v 1.585058 -0.277394 3.098088
v 0.925709 0.067522 2.811969
v 1.414427 0.308446 2.758692
v 1.840957 0.132501 2.463995
v 2.130209 -0.288064 2.661958
v 0.578708 0.100992 2.389832
v 1.163838 0.358311 2.108900
v 1.814293 0.188716 1.920066
v 0.470765 -0.553999 2.606274
v 2.118212 -0.437035 1.979919
v 1.294489 -0.495517 2.293096
v -1.989628 -0.816196 2.668658
v -1.074381 -0.881176 3.016632
v -1.844460 0.132501 2.463995
v -0.929213 0.067522 2.811969
v -1.613907 -0.972296 3.034987
v -1.417933 0.308446 2.758692
v -2.013773 -1.092026 2.196361
v -0.778189 -1.179749 2.666126
v -2.133711 -0.288063 2.661958
v -0.898127 -0.375786 3.131723
v -1.817799 0.188716 1.920066
v -0.582213 0.100993 2.389831
v -1.428643 -1.349345 2.477293
v -1.588562 -0.277394 3.098088
v -1.167344 0.358312 2.108900
v -0.474270 -0.553999 2.606273
v -2.121716 -0.437035 1.979919
v -1.297993 -0.495517 2.293096
vt 0.625000 0.125000
vt 0.500000 0.125000
vt 0.500000 0.250000
vt 0.625000 0.250000
vt 0.375000 0.125000
vt 0.375000 0.250000
vt 0.500000 0.375000
vt 0.625000 0.375000
vt 0.500000 0.500000
vt 0.625000 0.500000
vt 0.375000 0.375000
vt 0.375000 0.500000
vt 0.500000 0.625000
vt 0.625000 0.625000
vt 0.375000 0.625000
vt 0.875000 0.125000
vt 0.750000 0.125000
vt 0.750000 0.250000
vt 0.875000 0.250000
vt 0.250000 0.125000
vt 0.250000 0.250000
vt 0.125000 0.125000
vt 0.125000 0.250000
vt 0.500000 1.000000
vt 1.000000 0.000000
vt 0.000000 0.000000
vt 0.000000 0.000000
vt 0.500000 1.000000
vt 1.000000 0.000000
vt 0.000000 0.000000
vt 0.000000 0.000000
vt 0.500000 1.000000
vt 1.000000 0.000000
vt 0.000000 0.000000
vt 0.000000 0.000000
vt 0.500000 1.000000
vt 1.000000 0.000000
vt 0.000000 0.000000
vt 0.000000 0.000000
vt 0.625000 0.125000
vt 0.625000 0.250000
vt 0.500000 0.250000
vt 0.500000 0.125000
vt 0.375000 0.250000
vt 0.375000 0.125000
vt 0.625000 0.375000
vt 0.500000 0.375000
vt 0.625000 0.500000
vt 0.500000 0.500000
vt 0.375000 0.500000
vt 0.375000 0.375000
vt 0.625000 0.625000
vt 0.500000 0.625000
vt 0.375000 0.625000
vt 0.875000 0.125000
vt 0.875000 0.250000
vt 0.750000 0.250000
vt 0.750000 0.125000
vt 0.250000 0.250000
vt 0.250000 0.125000
vt 0.125000 0.250000
vt 0.125000 0.125000
vt 0.500000 1.000000
vt 0.000000 0.000000
vt 0.000000 0.000000
vt 1.000000 0.000000
vt 0.500000 1.000000
vt 0.000000 0.000000
vt 0.000000 0.000000
vt 1.000000 0.000000
vt 0.500000 1.000000
vt 0.000000 0.000000
vt 0.000000 0.000000
vt 1.000000 0.000000
vt 0.500000 1.000000
vt 0.000000 0.000000
vt 0.000000 0.000000
vt 1.000000 0.000000
vn -0.391228 -0.584704 0.710677
vn 0.259538 -0.805888 0.532151
vn 0.337241 -0.508965 0.791974
vn -0.263121 -0.453798 0.851372
vn 0.831708 -0.497879 0.245719
vn 0.813834 -0.377338 0.441916
vn 0.329000 0.246973 0.911462
vn -0.426859 0.127814 0.895240
vn 0.128035 0.858237 0.497028
vn -0.433937 0.662517 0.610549
vn 0.892137 0.221458 0.393762
vn 0.643018 0.738978 0.201094
vn -0.015163 0.989335 0.144867
vn -0.585198 0.682928 0.437210
vn 0.637739 0.769753 -0.027746
vn -0.743774 0.030243 0.667746
vn 0.988151 0.153203 0.009272
vn -0.329001 -0.246973 -0.911462
vn -0.329001 -0.246973 -0.911462
vn -0.329001 -0.246973 -0.911462
vn -0.329001 -0.246973 -0.911462
vn -0.329000 -0.246974 -0.911462
vn -0.329000 -0.246974 -0.911462
vn -0.329000 -0.246974 -0.911462
vn -0.329000 -0.246974 -0.911462
vn -0.329000 -0.246972 -0.911462
vn -0.329000 -0.246972 -0.911462
vn -0.329000 -0.246972 -0.911462
vn -0.329000 -0.246972 -0.911462
vn -0.329001 -0.246972 -0.911462
vn -0.329001 -0.246972 -0.911462
vn -0.329001 -0.246972 -0.911462
vn -0.329001 -0.246972 -0.911462
vn 0.391229 -0.584704 0.710676
vn 0.263122 -0.453799 0.851372
vn -0.337241 -0.508964 0.791975
vn -0.259538 -0.805888 0.532151
vn -0.813834 -0.377338 0.441917
vn -0.831708 -0.497880 0.245720
vn 0.426860 0.127813 0.895240
vn -0.329001 0.246972 0.911462
vn 0.433937 0.662517 0.610549
vn -0.128037 0.858237 0.497028
vn -0.643019 0.738977 0.201095
vn -0.892137 0.221458 0.393763
vn 0.585198 0.682928 0.437210
vn 0.015161 0.989335 0.144867
vn -0.637739 0.769753 -0.027745
vn 0.743776 0.030241 0.667745
vn -0.988151 0.153204 0.009274
vn 0.329001 -0.246973 -0.911462
vn 0.329001 -0.246973 -0.911462
vn 0.329001 -0.246973 -0.911462
vn 0.329001 -0.246973 -0.911462
vn 0.329001 -0.246972 -0.911462
vn 0.329001 -0.246972 -0.911462
vn 0.329001 -0.246972 -0.911462
vn 0.329001 -0.246972 -0.911462
vn 0.329001 -0.246973 -0.911462
vn 0.329001 -0.246973 -0.911462
vn 0.329001 -0.246973 -0.911462
vn 0.329001 -0.246973 -0.911462
vn 0.329001 -0.246972 -0.911462
vn 0.329001 -0.246972 -0.911462
vn 0.329001 -0.246972 -0.911462
vn 0.329001 -0.246972 -0.911462
s 1
g pupils
usemtl lambert3SG
f 1/1/1 4/2/2 3/3/3 2/4/4
f 3/3/3 4/2/2 6/5/5 5/6/6
f 3/3/3 8/7/7 7/8/8 2/4/4
f 7/8/8 8/7/7 10/9/9 9/10/10
f 10/9/9 8/7/7 12/11/11 11/12/12
f 12/11/11 8/7/7 3/3/3 5/6/6
f 10/9/9 14/13/13 13/14/14 9/10/10
f 15/15/15 14/13/13 10/9/9 11/12/12
f 13/16/14 16/17/16 7/18/8 9/19/10
f 7/18/8 16/17/16 1/1/1 2/4/4
f 6/5/5 17/20/17 12/21/11 5/6/6
f 12/21/11 17/20/17 15/22/15 11/23/12
s off
f 18/24/18 17/25/19 6/26/20 4/27/21
f 18/28/22 16/29/23 13/30/24 14/31/25
f 18/32/26 4/33/27 1/34/28 16/35/29
f 18/36/30 14/37/31 15/38/32 17/39/33
s 6
f 26/40/34 20/41/35 23/42/36 31/43/37
f 23/42/36 19/44/38 25/45/39 31/43/37
f 23/42/36 20/41/35 28/46/40 32/47/41
f 28/46/40 22/48/42 24/49/43 32/47/41
f 24/49/43 21/50/44 27/51/45 32/47/41
f 27/51/45 19/44/38 23/42/36 32/47/41
f 24/49/43 22/48/42 30/52/46 33/53/47
f 29/54/48 21/50/44 24/49/43 33/53/47
f 30/55/46 22/56/42 28/57/40 34/58/49
f 28/57/40 20/41/35 26/40/34 34/58/49
f 25/45/39 19/44/38 27/59/45 35/60/50
f 27/59/45 21/61/44 29/62/48 35/60/50
s off
f 36/63/51 31/64/52 25/65/53 35/66/54
f 36/67/55 33/68/56 30/69/57 34/70/58
f 36/71/59 34/72/60 26/73/61 31/74/62
f 36/75/63 35/76/64 29/77/65 33/78/66
