# This file uses centimeters as units for non-parametric coordinates.

mtllib monster_LowerLeg.mtl
g default
v -0.158526 -3.485760 -0.157861
v -0.158525 -3.485760 0.159189
v -0.158526 3.485760 -0.157861
v -0.158525 3.485760 0.159189
v 0.158525 3.485760 -0.157861
v 0.158524 3.485760 0.159189
v 0.158525 -3.485760 -0.157861
v 0.158524 -3.485760 0.159189
v -0.158525 -2.835174 0.159189
v -0.158526 -2.835174 -0.157861
v 0.158525 -2.835174 -0.157861
v 0.158524 -2.835174 0.159189
v 0.158525 -3.485760 1.378729
v -0.158526 -3.485760 1.378729
v 0.158525 -3.073886 1.378729
v -0.158526 -3.073886 1.378729
vt 0.375000 0.000000
vt 0.625000 0.000000
vt 0.375000 0.250000
vt 0.625000 0.250000
vt 0.375000 0.500000
vt 0.625000 0.500000
vt 0.375000 0.750000
vt 0.625000 0.750000
vt 0.375000 1.000000
vt 0.625000 1.000000
vt 0.875000 0.000000
vt 0.875000 0.250000
vt 0.125000 0.000000
vt 0.125000 0.250000
vt 0.625000 0.024575
vt 0.375000 0.024575
vt 0.125000 0.024575
vt 0.375000 0.725425
vt 0.625000 0.725425
vt 0.875000 0.024575
vt 0.625000 0.000000
vt 0.875000 0.000000
vt 0.875000 0.024575
vt 0.625000 0.024575
vn -1.000000 0.000000 0.000003
vn -1.000000 0.000000 0.000001
vn -1.000000 0.000000 0.000001
vn -1.000000 0.000000 0.000003
vn 0.000000 1.000000 0.000000
vn 0.000000 1.000000 0.000000
vn 0.000000 1.000000 0.000000
vn 0.000000 1.000000 0.000000
vn 1.000000 0.000000 0.000003
vn 1.000000 0.000000 0.000002
vn 1.000000 0.000000 0.000001
vn 1.000000 0.000000 0.000003
vn 0.000000 -1.000000 0.000000
vn 0.000000 -1.000000 0.000000
vn 0.000000 -1.000000 0.000000
vn 0.000000 -1.000000 0.000000
vn 0.000000 0.000000 1.000000
vn 0.000000 0.000000 1.000000
vn 0.000000 0.000000 1.000000
vn 0.000000 0.000000 1.000000
vn 0.000000 0.000000 -1.000000
vn 0.000000 0.000000 -1.000000
vn 0.000000 0.000000 -1.000000
vn 0.000000 0.000000 -1.000000
vn -1.000000 0.000000 0.000003
vn -1.000000 0.000000 0.000003
vn 0.000000 0.000000 -1.000000
vn 0.000000 0.000000 -1.000000
vn 1.000000 0.000000 0.000003
vn 1.000000 0.000000 0.000003
vn 0.000000 0.000000 1.000000
vn 0.000000 0.000000 1.000000
vn 0.000000 0.000000 1.000000
vn 0.000000 0.000000 1.000000
vn 0.000000 -1.000000 0.000000
vn 0.000000 -1.000000 0.000000
vn 1.000000 0.000000 -0.000001
vn 1.000000 0.000000 -0.000001
vn 0.000000 0.981376 0.192094
vn 0.000000 0.981376 0.192094
vn 0.000000 0.981376 0.192094
vn 0.000000 0.981376 0.192094
vn -1.000000 0.000000 -0.000001
vn -1.000000 0.000000 -0.000001
s 1
g lowerLeg
usemtl lambert3SG
f 1/1/1 2/2/2 9/15/3 10/16/4
s off
f 3/3/5 4/4/6 6/6/7 5/5/8
s 3
f 11/18/9 12/19/10 8/8/11 7/7/12
s 4
f 7/7/13 8/8/14 2/10/15 1/9/16
s off
f 14/21/17 13/22/18 15/23/19 16/24/20
s 6
f 7/13/21 1/1/22 10/16/23 11/17/24
s 1
f 10/16/4 9/15/3 4/4/25 3/3/26
s 6
f 11/17/24 10/16/23 3/3/27 5/14/28
s 3
f 5/5/29 6/6/30 12/19/10 11/18/9
s off
f 9/15/31 12/20/32 6/12/33 4/4/34
s 4
f 2/2/15 8/11/14 13/22/35 14/21/36
s 3
f 8/11/11 12/20/10 15/23/37 13/22/38
s off
f 12/20/39 9/15/40 16/24/41 15/23/42
s 1
f 9/15/3 2/2/2 14/21/43 16/24/44
